Coordinates
version=1
nRows=20
nColumns=34
inDegrees=yes

Units are S.I. units (second, meters, Newtons, ...)
If the header above contains a line with 'inDegrees', this indicates whether rotational values are in degrees (yes) or radians (no).

endheader
time	pelvis_tilt	pelvis_list	pelvis_rotation	pelvis_tx	pelvis_ty	pelvis_tz	hip_flexion_r	hip_adduction_r	hip_rotation_r	knee_angle_r	ankle_angle_r	subtalar_angle_r	mtp_angle_r	hip_flexion_l	hip_adduction_l	hip_rotation_l	knee_angle_l	ankle_angle_l	subtalar_angle_l	mtp_angle_l	lumbar_extension	lumbar_bending	lumbar_rotation	arm_flex_r	arm_add_r	arm_rot_r	elbow_flex_r	pro_sup_r	arm_flex_l	arm_add_l	arm_rot_l	elbow_flex_l	pro_sup_l
      1.53333330	     -3.86375884	     -3.36708655	    179.81539273	      1.88396832	      1.00327139	     -0.56467527	     23.12749006	      4.29426044	      4.50176908	     39.73466475	      7.91320069	    -17.83489776	      0.00000000	     14.09640862	      3.00215677	      1.48083278	    117.84350765	     -4.20606643	    -14.70611390	      0.00000000	    -21.35459558	      1.33378852	     -7.11240798	     -8.93076901	    -22.74592974	     -1.98750724	    104.10563714	     99.45317838	    -21.74199760	    -27.10937066	     22.34608601	     91.46111452	     92.41648051
      1.54166670	     -3.58685904	     -2.89245895	    179.23174502	      1.88949680	      0.99623784	     -0.56589223	     22.66077780	      5.16655053	      4.95385943	     41.55293075	     10.06197778	    -18.33388720	      0.00000000	     18.23408377	      2.00314237	      1.74490469	    121.30523993	     -0.02031646	    -13.02278473	      0.00000000	    -22.08683470	      1.50965794	     -6.67241053	     -4.36116355	    -23.18827299	      1.31353289	    102.76276558	     99.07996080	    -25.24475146	    -25.72641264	     14.60652138	     91.68736651	     94.28358078
      1.55000000	     -3.32501862	     -2.17619701	    178.50522467	      1.89598906	      0.99460206	     -0.56697468	     21.70049658	      6.18857520	      5.23040005	     42.45335826	     11.48445934	    -18.59070649	      0.00000000	     22.49543998	      0.70082862	      1.96898798	    123.89273932	      3.92260630	    -11.19834271	      0.00000000	    -22.65642364	      2.13849832	     -3.38688941	     -2.23134765	    -23.61772113	      1.47762264	    102.96190322	     98.98500387	    -25.13161206	    -26.13620313	     12.03068319	     91.68446243	     94.29586691
      1.55833330	     -2.93437394	     -1.34947602	    177.75943901	      1.90305603	      0.98994046	     -0.56783177	     20.71032842	      7.18332232	      5.23517529	     42.89322313	     12.24108411	    -19.26151906	      0.00000000	     27.00738084	     -0.70044864	      1.91640259	    124.62487078	      6.33833904	     -9.40134753	      0.00000000	    -22.97169843	      2.75100287	     -2.73929863	      3.47719661	    -23.82168668	      5.45377969	    101.66268975	     98.34078944	    -28.39407100	    -24.74371315	      5.49378896	     93.75391959	     94.81490028
      1.56666670	     -2.53249698	     -0.76627869	    176.93349777	      1.90962218	      0.99066808	     -0.56899439	     19.12582718	      7.74109092	      5.16448620	     42.20572747	     12.68966053	    -19.16382236	      0.00000000	     31.21497389	     -1.83256641	      1.53598052	    123.92574529	      7.08419524	     -8.73605585	      0.00000000	    -22.91045582	      3.25350306	      0.48229605	      6.54820728	    -23.99911119	      6.41126201	    101.48545247	     98.22818645	    -28.31867766	    -25.38935911	      3.88231810	     94.75498361	     94.79929737
      1.57500000	     -2.27012003	     -0.79276463	    176.33632449	      1.91562664	      0.99441270	     -0.57042859	     17.12907666	      7.43742752	      4.88443961	     40.99059044	     12.29360471	    -19.13730760	      0.00000000	     35.00726267	     -2.30469108	      0.84857702	    122.23108265	      5.83700203	     -9.73662965	      0.00000000	    -22.81816156	      3.12472026	      0.60619138	     12.96513588	    -22.78645160	     11.04072132	     98.03474230	     97.71355234	    -30.96350072	    -24.54903478	     -0.47499481	     96.07813368	     94.38889460
      1.58333330	     -1.96131869	     -1.05673457	    176.02432754	      1.92042610	      0.99751529	     -0.57135134	     15.39295811	      6.80893762	      4.35639634	     40.11456158	     13.55690496	    -18.05031176	      0.00000000	     38.21136559	     -2.30565391	     -0.13857257	    119.29440861	      3.17697678	    -11.68809435	      0.00000000	    -22.86966671	      2.83228856	      2.15687387	     16.78530213	    -21.88111305	     12.55036725	     96.64025404	     97.24509847	    -32.01831125	    -24.36123017	     -3.03981887	     97.36497612	     94.12552801
      1.59166670	     -1.71929338	     -1.98303984	    176.13489648	      1.92360207	      1.00693026	     -0.57252558	     13.23511648	      5.37773497	      3.90300459	     38.63165834	     12.81442401	    -17.79832252	      0.00000000	     40.57279705	     -1.48499108	     -1.40934675	    115.38153955	     -0.56349868	    -14.65039960	      0.00000000	    -22.77376964	      1.85859739	      3.97392835	     18.76968306	    -21.03113876	     12.54431453	     95.82172644	     97.19777289	    -32.11976052	    -25.08483121	     -3.95638466	     97.98486999	     94.00790845
      1.60000000	     -1.46812190	     -2.96331545	    176.60063260	      1.92550738	      1.01586327	     -0.57325773	     11.09726887	      3.81945770	      3.02771176	     37.36924537	     12.48646550	    -16.40472277	      0.00000000	     42.44662091	     -0.37215752	     -2.43297153	    111.33723093	     -3.51762867	    -18.83285109	      0.00000000	    -22.59942167	      0.77871323	      4.37242987	     20.49310997	    -19.84002058	     12.94051829	     95.37768855	     97.35017552	    -33.54842145	    -24.83282571	     -6.19627068	     99.00317566	     93.57579224
      1.60833330	     -1.20782933	     -3.91962989	    176.95653636	      1.92671865	      1.02581181	     -0.57392398	      8.84687415	      2.43684002	      2.57892201	     35.94676870	     11.78861883	    -15.56312132	      0.00000000	     43.65264750	      0.74599861	     -3.63286577	    106.63530712	     -5.55934677	    -22.96758087	      0.00000000	    -22.08531049	     -0.16360596	      5.41389768	     20.69692254	    -19.15011088	     12.89277696	     95.38630877	     97.43581099	    -33.87698290	    -24.86737892	     -7.29397928	     98.67913019	     93.42231177
      1.61666670	     -0.95594968	     -4.58512712	    177.06005763	      1.92824987	      1.03451309	     -0.57456213	      6.28720699	      1.31489002	      2.15517982	     33.96618563	     11.09687933	    -13.96408041	      0.00000000	     44.52462014	      1.45607077	     -4.74474954	    101.51475861	     -7.38469437	    -26.56507991	      0.00000000	    -21.67515405	     -0.91703718	      6.33944599	     20.09273443	    -18.53496163	     13.02195648	     96.29919530	     97.67042312	    -34.44001751	    -24.49966499	     -8.37715865	     98.42217095	     93.23258368
      1.62500000	     -0.46993462	     -5.04687088	    176.66781993	      1.93032213	      1.03825259	     -0.57518338	      4.45520199	      0.50865474	      2.21934591	     32.72270469	     10.11477180	    -12.36032793	      0.00000000	     46.01908797	      1.73996105	     -5.72249018	     97.02316924	     -7.70136939	    -28.68536588	      0.00000000	    -20.94821468	     -1.66008031	      7.55411284	     18.94479685	    -18.63077272	     13.71979652	     98.77280398	     97.97085006	    -35.31873573	    -23.85490036	     -9.84465653	     98.82932297	     93.08303885
      1.63333330	      0.06458257	     -5.19390970	    175.87757955	      1.93249989	      1.04498807	     -0.57607347	      2.58054064	     -0.13868062	      2.08048646	     30.94955102	      8.43689616	    -10.52370495	      0.00000000	     47.15977708	      1.40261151	     -6.80378977	     91.51580511	     -8.93328387	    -29.19560670	      0.00000000	    -20.01691421	     -2.02440320	      9.06893385	     17.59630301	    -18.99762127	     14.84866377	    101.89636710	     98.27748878	    -36.54804098	    -23.18466174	    -11.28300541	     99.72843057	     92.97563564
      1.64166670	      0.67608947	     -4.80618467	    174.76529771	      1.93415531	      1.05094703	     -0.57672494	      0.75618264	     -0.20279524	      2.59488796	     29.03792475	      6.59876503	     -8.60593563	      0.00000000	     48.04719189	      0.44762783	     -7.46293239	     85.19707672	    -12.40411085	    -28.29278899	      0.00000000	    -19.18253266	     -1.87578248	     10.95587154	     15.84525574	    -19.67581266	     16.62305242	    105.89233101	     98.70501338	    -37.66596010	    -22.03859321	    -12.70242955	    100.64062758	     92.87619773
      1.65000000	      1.60052266	     -3.76204161	    173.71780558	      1.93385022	      1.05280226	     -0.57678114	     -0.64123313	      0.35946195	      2.86021660	     27.58988558	      4.25343615	     -6.61363889	      0.00000000	     49.02222991	     -1.06655689	     -7.74712532	     78.49349602	    -13.65115863	    -28.22826901	      0.00000000	    -17.88958728	     -0.89086103	     13.00443052	     13.93808082	    -20.79059700	     18.83334738	    110.26166173	     99.14182419	    -39.08956594	    -20.93761463	    -13.90357123	    101.58804146	     92.79689037
      1.65833330	      2.61894794	     -2.47543244	    172.82777948	      1.93126386	      1.05817180	     -0.57712815	     -2.24998894	      1.16964684	      2.99819069	     25.82373521	      1.55904507	     -4.76693426	      0.00000000	     48.33319357	     -2.36760059	     -7.98770964	     69.40795606	    -12.18494617	    -28.93669721	      0.00000000	    -16.11084658	      0.48876480	     15.09757226	     11.76648434	    -22.08843282	     21.30721752	    113.94327667	     99.49393071	    -40.55910761	    -20.11009155	    -14.95547977	    102.40152349	     92.68616735
      1.66666670	      2.81729698	     -1.31913460	    172.11263668	      1.92806625	      1.06853890	     -0.57830377	     -4.86752163	      1.96843503	      4.10749493	     23.70383947	     -0.34631947	     -3.37163288	      0.00000000	     47.13779656	     -3.72972234	     -8.35973688	     61.36790671	    -10.05579186	    -27.58562061	      0.00000000	    -15.60097142	      1.64637498	     17.16660377	      9.57981963	    -23.14393233	     23.83180146	    118.24361672	    100.01126532	    -41.51478846	    -19.65959465	    -15.39178737	    103.00198374	     92.38651835
      1.67500000	      3.14372093	     -0.92421505	    171.93570282	      1.92434213	      1.07241240	     -0.57940152	     -6.98248897	      2.01344215	      4.85421386	     22.02023741	     -2.32149803	     -1.89197026	      0.00000000	     47.12853107	     -4.39416675	     -8.93780505	     55.13996167	     -9.31025412	    -26.29735187	      0.00000000	    -14.40077936	      2.06271687	     18.75400356	      7.60647521	    -24.05106660	     26.41584140	    120.59376841	    100.30049154	    -41.87240204	    -19.76146841	    -16.12892911	    103.50374633	     92.09620316
      1.68333330	      3.10016428	     -0.38919128	    171.92480614	      1.92118451	      1.08003711	     -0.58061887	     -9.12393500	      2.31703908	      5.98594161	     20.73014780	     -4.43128886	     -1.13684340	      0.00000000	     46.08583246	     -5.09254884	     -9.79182102	     48.78704119	    -11.58607365	    -24.32029179	      0.00000000	    -13.73194868	      2.65995873	     20.12321438	      6.18885243	    -24.75830640	     29.02178807	    122.85418730	    100.59003409	    -42.12252575	    -20.08905709	    -16.27227807	    103.80435069	     91.59378781
      1.69166670	      3.01497114	      0.98939560	    172.01646220	      1.91745396	      1.08261556	     -0.58072503	    -10.85011974	      3.50294231	      7.28941262	     20.73939337	     -5.28419496	     -0.98249207	      0.00000000	     44.51816234	     -6.25693638	    -10.40706363	     42.13876538	    -14.83131072	    -21.81977456	      0.00000000	    -13.05524338	      4.32728859	     21.50587630	      5.11797142	    -25.78401273	     31.25006448	    124.67558888	    100.79254132	    -42.26144634	    -20.17383874	    -16.26291914	    104.07000426	     90.94868836
